<svg xmlns="http://www.w3.org/2000/svg" class="md:w-[975px] w-[680px] h-[200px] translate-x-[40px] md:translate-x-0 md:h-auto" viewBox="0 0 943 315" fill="none"><path fill="#B7FFE7" d="M58.12 315.209c32.098 0 58.119-24.899 58.119-55.614 0-30.715-26.02-55.615-58.12-55.615C26.022 203.98 0 228.88 0 259.595c0 30.715 26.021 55.614 58.12 55.614Z"></path><path fill="#61F7CF" d="M688.911 276.117c34.589 0 62.629-26.694 62.629-59.622 0-32.929-28.04-59.623-62.629-59.623s-62.629 26.694-62.629 59.623c0 32.928 28.04 59.622 62.629 59.622ZM110.62 230.102c12.19 53.104 49.119 90.514 82.483 83.557 33.365-6.957 50.53-55.646 38.34-108.75-12.189-53.105-49.118-90.515-82.483-83.558-33.364 6.957-50.53 55.646-38.34 108.751Z"></path><path fill="#B7FFE7" d="m245.706 277.233 70.98 35.346a21.516 21.516 0 0 0 9.074 2.234 21.564 21.564 0 0 0 9.177-1.808 20.598 20.598 0 0 0 7.399-5.48 19.369 19.369 0 0 0 4.106-8.029l14.92-62.009a18.89 18.89 0 0 0-1.378-12.669c-1.915-3.961-5.154-7.207-9.21-9.229l-41.002-20.413a21.618 21.618 0 0 0-13.206-1.937c-4.505.763-8.619 2.926-11.698 6.152l-44.887 47.085a19.502 19.502 0 0 0-4.573 7.798 18.84 18.84 0 0 0-.495 8.921 19.268 19.268 0 0 0 3.684 8.215 20.465 20.465 0 0 0 7.109 5.823Z"></path><path fill="#61F7CF" d="m917.052 160.199-126.737-26.254a35.109 35.109 0 0 0-15.176.211c-4.976 1.176-9.603 3.423-13.525 6.57-3.923 3.146-7.037 7.108-9.103 11.58a30.67 30.67 0 0 0-2.812 14.218l4.5 102.957c.31 7.059 3.065 13.822 7.834 19.229 4.769 5.408 11.284 9.156 18.526 10.66l73.209 15.158c7.242 1.498 14.801.667 21.498-2.362 6.696-3.03 12.152-8.087 15.516-14.384l49.005-91.871a30.77 30.77 0 0 0 3.647-14.049 30.69 30.69 0 0 0-3.227-14.138c-2.196-4.415-5.425-8.291-9.439-11.329-4.015-3.038-8.707-5.158-13.716-6.196ZM515.939 234.865l-82.778-45.533a23.246 23.246 0 0 0-8.304-2.687 23.597 23.597 0 0 0-8.755.544 22.97 22.97 0 0 0-7.872 3.692 21.767 21.767 0 0 0-5.79 6.276l-47.914 78.801a20.7 20.7 0 0 0-2.968 8.943 20.442 20.442 0 0 0 1.332 9.288 21.296 21.296 0 0 0 5.377 7.852 22.678 22.678 0 0 0 8.39 4.909c27.004 8.933 56.212 9.946 83.844 2.908 27.632-7.039 52.415-21.804 71.142-42.386a21.14 21.14 0 0 0 4.693-8.24 20.41 20.41 0 0 0 .548-9.353 20.806 20.806 0 0 0-3.702-8.676 22.078 22.078 0 0 0-7.243-6.338ZM402.915 194.444l13.23-26.369a24.861 24.861 0 0 0 2.604-12.892c-.308-4.439-1.81-8.728-4.362-12.453l-16.767-24.509c-2.547-3.728-6.058-6.769-10.195-8.829a28.298 28.298 0 0 0-13.428-2.933l-30.649.9c-4.988.146-9.838 1.598-14.02 4.195-4.181 2.597-7.533 6.24-9.687 10.531l-13.229 26.368a24.89 24.89 0 0 0-2.606 12.894c.307 4.439 1.806 8.73 4.355 12.457l16.766 24.509c2.551 3.726 6.065 6.765 10.203 8.823a28.329 28.329 0 0 0 13.429 2.933l30.649-.9c4.989-.146 9.839-1.597 14.02-4.195 4.181-2.597 7.533-6.24 9.687-10.53Z"></path><rect width="166.393" height="84.508" fill="#B7FFE7" rx="42.254" transform="matrix(.59912 .80066 -.82703 .56215 560.805 150.383)"></rect><path fill="#61F7CF" d="m699.2 120.226-12.357 24.902c-1.879 3.791-4.751 7.056-8.339 9.482-3.589 2.426-7.772 3.93-12.147 4.368l-90.039 10a26.757 26.757 0 0 1-12.836-1.853c-4.041-1.657-7.566-4.278-10.236-7.61l-17.54-21.89c-2.855-3.563-4.627-7.805-5.122-12.263a23.433 23.433 0 0 1 2.316-13.014l12.356-24.9c1.881-3.792 4.753-7.058 8.34-9.485 3.588-2.427 7.771-3.934 12.146-4.376l90.038-10c4.376-.439 8.796.202 12.837 1.861 4.04 1.66 7.565 4.28 10.236 7.612l17.54 21.89c2.855 3.563 4.627 7.805 5.122 12.263a23.436 23.436 0 0 1-2.315 13.013Z"></path><path fill="#B7FFE7" d="m538.247 43.247 8.11 26.329a24.418 24.418 0 0 1 .53 12.366 24.445 24.445 0 0 1-5.601 11.043l-56.624 65.346a24.444 24.444 0 0 1-22.626 7.871l-27.12-4.86a24.417 24.417 0 0 1-11.881-5.751 24.414 24.414 0 0 1-7.154-11.093l-8.11-26.329a24.448 24.448 0 0 1-.531-12.368 24.48 24.48 0 0 1 5.595-11.048l56.624-65.345a24.488 24.488 0 0 1 22.633-7.865l27.12 4.86a24.426 24.426 0 0 1 19.035 16.844ZM843.357 143.199l79.166-4.515a21.507 21.507 0 0 0 8.986-2.561 21.567 21.567 0 0 0 7.072-6.122 20.582 20.582 0 0 0 3.707-8.429c.57-3.023.427-6.104-.418-9.008l-17.801-61.243a18.893 18.893 0 0 0-7.481-10.317c-3.628-2.49-8.05-3.702-12.574-3.446l-45.729 2.613a21.608 21.608 0 0 0-12.427 4.868c-3.534 2.897-6.033 6.816-7.107 11.144l-15.62 63.149a19.486 19.486 0 0 0-.103 9.04 18.825 18.825 0 0 0 3.995 7.991 19.251 19.251 0 0 0 7.273 5.306 20.447 20.447 0 0 0 9.061 1.53Z"></path></svg>